<?xml version="1.0" encoding="utf-8"?>
<!-- Generator: Adobe Illustrator 25.2.1, SVG Export Plug-In . SVG Version: 6.00 Build 0)  -->
<svg version="1.1" id="Layer_1" xmlns="http://www.w3.org/2000/svg" xmlns:xlink="http://www.w3.org/1999/xlink" x="0px" y="0px"
	 viewBox="0 0 512 512" style="enable-background:new 0 0 512 512;" xml:space="preserve">
<style type="text/css">
	.st0{fill:#7DBB42;}
	.st1{fill:#FFFFFF;}
</style>
<g>
	<path class="st0" d="M487.54,75.11c-13.51,0-24.46,10.95-24.46,24.46c0,3.12,0.64,6.07,1.7,8.81L283.42,289.7l-73.21-72.44
		L33.27,394.76c-2.74-1.06-5.69-1.7-8.81-1.7C10.95,393.06,0,404.01,0,417.51c0,13.51,10.95,24.46,24.46,24.46
		s24.46-10.95,24.46-24.46c0-3.12-0.64-6.07-1.7-8.81l163.07-163.63l73.21,72.44l195.24-195.2c2.74,1.06,5.69,1.7,8.81,1.7
		c13.51,0,24.46-10.95,24.46-24.46S501.05,75.11,487.54,75.11z"/>
	<path class="st1" d="M103.3,299.38c-15.27-53.11-2-112.68,39.83-154.52c61.31-61.31,160.71-61.31,222.02,0
		c6.54,6.54,12.33,13.53,17.48,20.84l46.42-46.42c-5.52-7.05-11.47-13.87-17.96-20.36c-86.68-86.68-227.21-86.68-313.89,0
		c-67.83,67.83-82.57,168.63-44.25,250.8L103.3,299.38z"/>
	<path class="st0" d="M262.79,477.59c1.29-0.05,2.58-0.08,3.87-0.15c2.38-0.13,4.73-0.33,7.09-0.54c1.2-0.11,2.4-0.18,3.6-0.3
		c3.32-0.35,6.63-0.77,9.91-1.26c1.78-0.27,3.54-0.6,5.32-0.91c1.63-0.28,3.26-0.55,4.87-0.87c1.85-0.37,3.7-0.79,5.54-1.21
		c1.53-0.34,3.06-0.68,4.58-1.06c1.8-0.45,3.6-0.93,5.39-1.42c1.57-0.43,3.15-0.87,4.71-1.34c1.68-0.5,3.35-1.02,5.02-1.56
		c1.71-0.56,3.41-1.13,5.11-1.73c1.49-0.52,2.98-1.05,4.46-1.61c1.92-0.72,3.83-1.48,5.73-2.26c1.23-0.5,2.46-0.99,3.69-1.52
		c2.26-0.97,4.49-1.99,6.7-3.03c0.85-0.4,1.71-0.78,2.56-1.19c2.82-1.37,5.6-2.8,8.36-4.28c0.25-0.13,0.51-0.26,0.76-0.39
		c29.18-15.87,54.36-38.13,73.77-64.86c2.24-3.09,4.39-6.22,6.45-9.39c0.89-1.38,1.79-2.75,2.66-4.14
		c2.35-3.79,4.59-7.62,6.69-11.51c0.64-1.19,1.23-2.41,1.85-3.61c1.68-3.27,3.28-6.56,4.79-9.89c0.56-1.22,1.12-2.43,1.66-3.67
		c1.86-4.3,3.59-8.64,5.16-13.03c0.31-0.85,0.58-1.72,0.87-2.58c1.37-4,2.64-8.02,3.78-12.07c0.24-0.86,0.5-1.71,0.73-2.58
		c1.28-4.78,2.42-9.59,3.38-14.42c0.09-0.47,0.16-0.94,0.25-1.41c0.84-4.39,1.53-8.8,2.1-13.23c0.13-0.97,0.26-1.94,0.37-2.91
		c0.57-4.91,1.02-9.84,1.26-14.78c0-0.01,0-0.02,0-0.03c2.1-42.85-8.16-86.2-30.78-124.25c-10.88,8.51-21.09,14.25-31.12,23.22
		c-4.75,4.25-11.91,11.2-19.64,19.23c29.78,58.89,20.1,132.62-29.1,181.83c-61.31,61.31-160.71,61.31-222.02,0
		c-11.97-11.97-21.56-25.39-28.86-39.69l-46.27,49.64c8.29,12.74,18.02,24.81,29.19,35.99c43.78,43.77,101.28,65.4,158.66,64.96
		C258.18,477.75,260.48,477.68,262.79,477.59z"/>
	<g>
		<g>
			<g>
				<polygon class="st0" points="348.96,194.8 348.96,157.61 332.52,157.61 315.95,157.61 299.51,157.61 299.51,194.8 299.27,194.8 
					299.27,249.06 349.2,199.13 349.2,194.8 				"/>
			</g>
			<g>
				<polygon class="st0" points="175.12,157.61 158.44,157.61 158.44,194.8 158.44,244.24 207.88,194.8 207.88,157.61 
					191.69,157.61 				"/>
			</g>
			<g>
				<polygon class="st0" points="245.53,120.09 228.86,120.09 228.86,150.5 228.86,169.3 228.86,211.06 278.78,260.46 278.78,169.3 
					278.78,150.5 278.78,120.09 262.1,120.09 				"/>
			</g>
		</g>
	</g>
	<g>
		<g>
			<polygon class="st1" points="158.68,326.12 158.68,347 175.12,347 191.69,347 208.13,347 208.13,326.12 208.37,326.12 
				208.37,271.86 158.44,321.78 158.44,326.12 			"/>
			<polygon class="st1" points="332.52,347 349.2,347 349.2,326.12 349.2,276.67 299.76,326.12 299.76,347 315.95,347 			"/>
		</g>
	</g>
	<polygon class="st1" points="228.86,287.67 228.86,335.31 228.86,354.11 228.86,391.3 245.54,391.3 262.11,391.3 278.78,391.3 
		278.78,354.11 278.78,337.07 	"/>
</g>
</svg>
